<svg xmlns="http://www.w3.org/2000/svg" xmlns:xlink="http://www.w3.org/1999/xlink" width="40" zoomAndPan="magnify" viewBox="0 0 30 30.000001" height="40" preserveAspectRatio="xMidYMid meet" version="1.0"><defs><clipPath id="108f06fc65"><path d="M 0.484375 0 L 29.515625 0 L 29.515625 29.03125 L 0.484375 29.03125 Z M 0.484375 0 " clip-rule="nonzero"/></clipPath><clipPath id="587161f8e0"><path d="M 3.386719 0 L 26.613281 0 C 27.382812 0 28.121094 0.304688 28.664062 0.851562 C 29.210938 1.394531 29.515625 2.132812 29.515625 2.902344 L 29.515625 26.128906 C 29.515625 26.898438 29.210938 27.636719 28.664062 28.183594 C 28.121094 28.726562 27.382812 29.03125 26.613281 29.03125 L 3.386719 29.03125 C 2.617188 29.03125 1.878906 28.726562 1.335938 28.183594 C 0.789062 27.636719 0.484375 26.898438 0.484375 26.128906 L 0.484375 2.902344 C 0.484375 2.132812 0.789062 1.394531 1.335938 0.851562 C 1.878906 0.304688 2.617188 0 3.386719 0 Z M 3.386719 0 " clip-rule="nonzero"/></clipPath><clipPath id="80c56997dd"><path d="M 0.484375 0 L 29.515625 0 L 29.515625 29.03125 L 0.484375 29.03125 Z M 0.484375 0 " clip-rule="nonzero"/></clipPath><clipPath id="0ce0557509"><path d="M 3.386719 0 L 26.613281 0 C 27.382812 0 28.121094 0.304688 28.664062 0.851562 C 29.210938 1.394531 29.515625 2.132812 29.515625 2.902344 L 29.515625 26.128906 C 29.515625 26.898438 29.210938 27.636719 28.664062 28.183594 C 28.121094 28.726562 27.382812 29.03125 26.613281 29.03125 L 3.386719 29.03125 C 2.617188 29.03125 1.878906 28.726562 1.335938 28.183594 C 0.789062 27.636719 0.484375 26.898438 0.484375 26.128906 L 0.484375 2.902344 C 0.484375 2.132812 0.789062 1.394531 1.335938 0.851562 C 1.878906 0.304688 2.617188 0 3.386719 0 Z M 3.386719 0 " clip-rule="nonzero"/></clipPath><clipPath id="ee2a3ad90f"><rect x="0" width="30" y="0" height="30"/></clipPath><clipPath id="14edd10dcb"><path d="M 1.375 3 L 29.515625 3 L 29.515625 26.222656 L 1.375 26.222656 Z M 1.375 3 " clip-rule="nonzero"/></clipPath><clipPath id="2584d2dcc8"><path d="M 8 10 L 24.691406 10 L 24.691406 19 L 8 19 Z M 8 10 " clip-rule="nonzero"/></clipPath><clipPath id="91cc8ed6e9"><path d="M 13 8.519531 L 19 8.519531 L 19 20.859375 L 13 20.859375 Z M 13 8.519531 " clip-rule="nonzero"/></clipPath></defs><g clip-path="url(#108f06fc65)"><g clip-path="url(#587161f8e0)"><g transform="matrix(1, 0, 0, 1, 0, 0.000000000000005692)"><g clip-path="url(#ee2a3ad90f)"><g clip-path="url(#80c56997dd)"><g clip-path="url(#0ce0557509)"><path fill="#0a626a" d="M 0.484375 0 L 29.515625 0 L 29.515625 29.03125 L 0.484375 29.03125 Z M 0.484375 0 " fill-opacity="1" fill-rule="nonzero"/></g></g></g></g></g></g><g clip-path="url(#14edd10dcb)"><path fill="#ffffff" d="M 29.507812 12.707031 C 28.167969 12.859375 27.71875 13.980469 27.585938 14.726562 C 26.972656 18.234375 25.890625 21.085938 23.792969 22.914062 C 21.5 24.914062 19.179688 25.917969 15.867188 26.027344 C 12.832031 26.125 9.824219 25.8125 7.730469 24.164062 C 5.042969 22.046875 4.035156 18.425781 3.40625 12.707031 C 3.3125 11.863281 2.703125 11.15625 1.847656 10.390625 C 1.628906 8.753906 1.59375 7.265625 1.382812 5.726562 C 22.0625 -0.46875 24.078125 6.945312 29.515625 6.949219 L 29.53125 6.949219 C 34.960938 6.933594 36.992188 -0.460938 57.652344 5.726562 C 57.4375 7.265625 57.40625 8.753906 57.183594 10.390625 C 56.332031 11.15625 55.722656 11.863281 55.628906 12.707031 C 55 18.425781 53.988281 22.046875 51.300781 24.164062 C 49.210938 25.8125 46.203125 26.125 43.167969 26.027344 C 39.855469 25.917969 37.535156 24.914062 35.242188 22.914062 C 33.140625 21.085938 32.0625 18.234375 31.445312 14.726562 C 31.316406 13.980469 30.863281 12.855469 29.515625 12.707031 Z M 15.449219 5.515625 C 18.375 5.574219 22.902344 6.070312 24.691406 7.726562 C 26.421875 9.328125 26.28125 12.679688 25.785156 15.15625 C 24.828125 19.960938 21.761719 23.957031 15.449219 23.921875 C 8.578125 23.886719 6.816406 20.433594 5.859375 15.238281 C 5.332031 12.347656 4.660156 9.039062 6.382812 7.601562 C 8.238281 6.046875 11.167969 5.429688 15.449219 5.515625 Z M 43.582031 5.515625 C 40.65625 5.574219 36.132812 6.070312 34.34375 7.726562 C 32.613281 9.328125 32.753906 12.679688 33.246094 15.15625 C 34.203125 19.960938 37.273438 23.957031 43.582031 23.921875 C 50.453125 23.886719 52.21875 20.433594 53.171875 15.238281 C 53.703125 12.347656 54.371094 9.039062 52.652344 7.601562 C 50.792969 6.046875 47.867188 5.429688 43.582031 5.515625 " fill-opacity="1" fill-rule="evenodd"/></g><g clip-path="url(#2584d2dcc8)"><path fill="#ffffff" d="M 8.238281 13.988281 L 11.199219 11.003906 C 11.34375 10.851562 11.519531 10.773438 11.730469 10.773438 C 12.066406 10.773438 12.296875 10.929688 12.421875 11.242188 C 12.542969 11.554688 12.488281 11.824219 12.246094 12.058594 L 9.808594 14.519531 L 12.246094 16.976562 C 12.488281 17.210938 12.542969 17.480469 12.421875 17.792969 C 12.296875 18.105469 12.066406 18.261719 11.730469 18.261719 C 11.519531 18.261719 11.34375 18.1875 11.199219 18.03125 L 8.238281 15.042969 C 8.09375 14.898438 8.023438 14.722656 8.023438 14.519531 C 8.023438 14.3125 8.09375 14.132812 8.238281 13.988281 Z M 21.136719 11.003906 C 20.992188 10.847656 20.8125 10.773438 20.601562 10.773438 C 20.398438 10.773438 20.222656 10.847656 20.078125 10.992188 C 19.933594 11.140625 19.863281 11.316406 19.867188 11.519531 C 19.867188 11.730469 19.941406 11.910156 20.089844 12.058594 L 22.527344 14.519531 L 20.089844 16.976562 C 19.941406 17.125 19.867188 17.304688 19.867188 17.515625 C 19.863281 17.71875 19.933594 17.894531 20.078125 18.042969 C 20.222656 18.1875 20.398438 18.261719 20.601562 18.261719 C 20.8125 18.261719 20.992188 18.1875 21.136719 18.03125 L 24.101562 15.042969 C 24.246094 14.898438 24.316406 14.722656 24.316406 14.519531 C 24.316406 14.3125 24.246094 14.132812 24.101562 13.988281 Z M 21.136719 11.003906 " fill-opacity="1" fill-rule="nonzero"/></g><g clip-path="url(#91cc8ed6e9)"><path fill="#ffffff" d="M 15.398438 19.949219 L 18.363281 9.492188 C 18.386719 9.417969 18.398438 9.339844 18.398438 9.261719 C 18.402344 9.074219 18.339844 8.90625 18.214844 8.765625 C 18.089844 8.625 17.933594 8.542969 17.746094 8.519531 C 17.558594 8.496094 17.386719 8.539062 17.234375 8.648438 C 17.078125 8.753906 16.980469 8.902344 16.9375 9.085938 L 13.976562 19.542969 C 13.957031 19.609375 13.949219 19.679688 13.949219 19.75 C 13.945312 19.914062 13.996094 20.066406 14.097656 20.195312 C 14.195312 20.328125 14.324219 20.417969 14.484375 20.464844 C 14.550781 20.480469 14.621094 20.492188 14.691406 20.492188 C 14.855469 20.492188 15.003906 20.441406 15.136719 20.339844 C 15.269531 20.242188 15.355469 20.109375 15.398438 19.949219 Z M 15.398438 19.949219 " fill-opacity="1" fill-rule="evenodd"/></g></svg>