<svg xmlns="http://www.w3.org/2000/svg" xmlns:xlink="http://www.w3.org/1999/xlink" width="54" zoomAndPan="magnify" viewBox="0 0 40.5 40.5" height="54" preserveAspectRatio="xMidYMid meet" version="1.0"><defs><clipPath id="1824fee500"><path d="M 0 0 L 40.007812 0 L 40.007812 40.007812 L 0 40.007812 Z M 0 0 " clip-rule="nonzero"/></clipPath><clipPath id="fe987a28ae"><path d="M 2.722656 5.1875 L 39.023438 5.1875 L 39.023438 34.824219 L 2.722656 34.824219 Z M 2.722656 5.1875 " clip-rule="nonzero"/></clipPath><clipPath id="e1a87fb92f"><path d="M 29.484375 2.898438 L 37.636719 2.898438 L 37.636719 6.601562 L 29.484375 6.601562 Z M 29.484375 2.898438 " clip-rule="nonzero"/></clipPath><clipPath id="ef78206756"><path d="M 2.722656 30.511719 L 8.648438 30.511719 L 8.648438 37.179688 L 2.722656 37.179688 Z M 2.722656 30.511719 " clip-rule="nonzero"/></clipPath><clipPath id="9b4be83f4e"><path d="M 11.710938 15 L 30.976562 15 L 30.976562 25 L 11.710938 25 Z M 11.710938 15 " clip-rule="nonzero"/></clipPath><clipPath id="a08241f21b"><path d="M 18 12.894531 L 25 12.894531 L 25 26.96875 L 18 26.96875 Z M 18 12.894531 " clip-rule="nonzero"/></clipPath><clipPath id="3938572246"><path d="M 31.09375 30.511719 L 37.761719 30.511719 L 37.761719 37.179688 L 31.09375 37.179688 Z M 31.09375 30.511719 " clip-rule="nonzero"/></clipPath><clipPath id="de140afe0e"><path d="M 2.089844 2.25 L 8.757812 2.25 L 8.757812 6.695312 L 2.089844 6.695312 Z M 2.089844 2.25 " clip-rule="nonzero"/></clipPath></defs><g clip-path="url(#1824fee500)"><path stroke-linecap="butt" transform="matrix(0.740854, 0, 0, 0.740854, 0.000000000000002854, 0.000000987805)" fill="none" stroke-linejoin="miter" d="M -0.000000000000003852 -0.00000133333 L 54.002317 -0.00000133333 L 54.002317 54.002316 L -0.000000000000003852 54.002316 Z M -0.000000000000003852 -0.00000133333 " stroke="#0a626a" stroke-width="4" stroke-opacity="1" stroke-miterlimit="4"/></g><g clip-path="url(#fe987a28ae)"><path fill="#0a626a" d="M 38.757812 17.625 C 37.042969 17.820312 36.464844 19.253906 36.296875 20.210938 C 35.507812 24.703125 34.128906 28.355469 31.4375 30.695312 C 28.5 33.253906 25.53125 34.542969 21.289062 34.679688 C 17.402344 34.808594 13.550781 34.410156 10.871094 32.296875 C 7.429688 29.585938 6.136719 24.949219 5.328125 17.621094 C 5.210938 16.542969 4.429688 15.640625 3.335938 14.660156 C 3.054688 12.5625 3.011719 10.65625 2.742188 8.683594 C 29.222656 0.75 31.800781 10.25 38.769531 10.25 L 38.789062 10.25 C 45.742188 10.230469 48.34375 0.761719 74.796875 8.683594 C 74.527344 10.65625 74.484375 12.5625 74.203125 14.660156 C 73.109375 15.640625 72.328125 16.542969 72.210938 17.621094 C 71.402344 24.949219 70.109375 29.585938 66.667969 32.296875 C 63.988281 34.410156 60.136719 34.808594 56.25 34.679688 C 52.007812 34.542969 49.039062 33.253906 46.101562 30.695312 C 43.410156 28.355469 42.03125 24.703125 41.242188 20.210938 C 41.070312 19.253906 40.496094 17.8125 38.769531 17.621094 Z M 20.753906 8.414062 C 24.503906 8.488281 30.300781 9.128906 32.585938 11.246094 C 34.808594 13.296875 34.625 17.589844 33.992188 20.761719 C 32.765625 26.914062 28.839844 32.03125 20.753906 31.988281 C 11.957031 31.941406 9.699219 27.515625 8.476562 20.863281 C 7.796875 17.164062 6.941406 12.925781 9.140625 11.085938 C 11.523438 9.097656 15.273438 8.304688 20.753906 8.414062 Z M 56.785156 8.414062 C 53.035156 8.488281 47.242188 9.128906 44.949219 11.246094 C 42.730469 13.296875 42.914062 17.589844 43.546875 20.761719 C 44.773438 26.914062 48.699219 32.03125 56.785156 31.988281 C 65.582031 31.941406 67.84375 27.515625 69.0625 20.863281 C 69.742188 17.164062 70.597656 12.925781 68.398438 11.085938 C 66.015625 9.097656 62.265625 8.304688 56.785156 8.414062 " fill-opacity="1" fill-rule="evenodd"/></g><g clip-path="url(#e1a87fb92f)"><path fill="#0a626a" d="M 37.777344 3.199219 L 36.820312 3.199219 L 36.820312 3.027344 C 36.820312 2.957031 36.761719 2.898438 36.691406 2.898438 C 36.617188 2.898438 36.558594 2.957031 36.558594 3.027344 L 36.558594 3.199219 L 35.601562 3.199219 C 35.503906 3.199219 35.425781 3.277344 35.425781 3.375 C 35.425781 3.476562 35.503906 3.554688 35.601562 3.554688 L 36.558594 3.554688 L 36.558594 3.855469 L 36.53125 3.855469 C 36.460938 3.855469 36.40625 3.914062 36.40625 3.984375 L 36.40625 4.390625 L 35.1875 4.390625 C 35.035156 4.390625 34.8125 4.257812 34.625 4.121094 C 34.355469 3.921875 34.386719 3.816406 34.050781 3.816406 L 33.394531 3.816406 C 33.058594 3.816406 33.089844 3.921875 32.820312 4.121094 C 32.632812 4.257812 32.410156 4.390625 32.257812 4.390625 L 31.039062 4.390625 L 31.039062 3.984375 C 31.039062 3.914062 30.984375 3.855469 30.914062 3.855469 L 30.886719 3.855469 L 30.886719 3.554688 L 31.84375 3.554688 C 31.941406 3.554688 32.019531 3.476562 32.019531 3.375 C 32.019531 3.277344 31.941406 3.199219 31.84375 3.199219 L 30.886719 3.199219 L 30.886719 3.027344 C 30.886719 2.957031 30.828125 2.898438 30.753906 2.898438 C 30.683594 2.898438 30.625 2.957031 30.625 3.027344 L 30.625 3.199219 L 29.667969 3.199219 C 29.570312 3.199219 29.488281 3.277344 29.488281 3.375 C 29.488281 3.476562 29.570312 3.554688 29.667969 3.554688 L 30.625 3.554688 L 30.625 3.855469 L 30.597656 3.855469 C 30.527344 3.855469 30.472656 3.914062 30.472656 3.984375 L 30.472656 5.199219 C 30.472656 5.269531 30.527344 5.328125 30.597656 5.328125 L 30.914062 5.328125 C 30.984375 5.328125 31.039062 5.269531 31.039062 5.199219 L 31.039062 4.890625 L 32.257812 4.890625 C 32.363281 4.890625 32.503906 5 32.640625 5.140625 C 32.1875 5.378906 31.816406 5.765625 31.601562 6.25 C 31.550781 6.355469 31.601562 6.484375 31.707031 6.53125 C 31.816406 6.578125 31.941406 6.53125 31.992188 6.421875 C 32.179688 6 32.515625 5.667969 32.921875 5.480469 C 32.992188 5.574219 33.054688 5.664062 33.101562 5.734375 C 33.160156 5.816406 33.253906 5.867188 33.355469 5.867188 L 34.089844 5.867188 C 34.191406 5.867188 34.285156 5.816406 34.34375 5.734375 C 34.390625 5.664062 34.453125 5.574219 34.523438 5.480469 C 34.929688 5.667969 35.265625 6 35.453125 6.421875 C 35.492188 6.503906 35.570312 6.550781 35.648438 6.550781 C 35.679688 6.550781 35.710938 6.542969 35.738281 6.53125 C 35.84375 6.484375 35.894531 6.355469 35.84375 6.25 C 35.628906 5.765625 35.257812 5.378906 34.804688 5.140625 C 34.941406 5 35.082031 4.890625 35.1875 4.890625 L 36.40625 4.890625 L 36.40625 5.199219 C 36.40625 5.269531 36.460938 5.328125 36.53125 5.328125 L 36.847656 5.328125 C 36.917969 5.328125 36.976562 5.269531 36.976562 5.199219 L 36.976562 3.984375 C 36.976562 3.914062 36.917969 3.855469 36.847656 3.855469 L 36.820312 3.855469 L 36.820312 3.554688 L 37.777344 3.554688 C 37.875 3.554688 37.957031 3.476562 37.957031 3.375 C 37.957031 3.277344 37.875 3.199219 37.777344 3.199219 Z M 37.777344 3.199219 " fill-opacity="1" fill-rule="nonzero"/></g><g clip-path="url(#ef78206756)"><path fill="#0a626a" d="M 8.351562 31.886719 L 5.652344 30.527344 C 5.613281 30.507812 5.566406 30.507812 5.523438 30.527344 L 2.824219 31.886719 C 2.777344 31.910156 2.746094 31.960938 2.746094 32.011719 L 2.746094 33.757812 C 2.746094 34.957031 3.386719 36.082031 4.417969 36.695312 L 5.515625 37.351562 C 5.539062 37.363281 5.5625 37.371094 5.589844 37.371094 C 5.613281 37.371094 5.640625 37.363281 5.660156 37.351562 L 6.761719 36.695312 C 7.789062 36.082031 8.429688 34.957031 8.429688 33.757812 L 8.429688 32.011719 C 8.429688 31.960938 8.398438 31.910156 8.351562 31.886719 Z M 7.609375 33.757812 C 7.609375 35.175781 6.28125 36.082031 5.589844 36.082031 C 4.894531 36.082031 3.570312 35.175781 3.570312 33.757812 L 3.570312 32.519531 C 3.570312 32.464844 3.601562 32.414062 3.652344 32.390625 L 5.527344 31.53125 C 5.566406 31.515625 5.609375 31.511719 5.648438 31.53125 C 5.648438 31.53125 7.523438 32.390625 7.523438 32.390625 C 7.578125 32.414062 7.609375 32.464844 7.609375 32.519531 Z M 5.589844 31.816406 L 7.320312 32.609375 L 7.320312 33.757812 C 7.320312 35.015625 6.136719 35.785156 5.601562 35.796875 C 5.042969 35.796875 3.863281 35.027344 3.855469 33.757812 L 3.855469 32.609375 Z M 5.589844 31.816406 " fill-opacity="1" fill-rule="nonzero"/></g><g clip-path="url(#9b4be83f4e)"><path fill="#0a626a" d="M 11.996094 19.375 L 15.507812 15.835938 C 15.679688 15.65625 15.886719 15.566406 16.136719 15.5625 C 16.316406 15.566406 16.480469 15.617188 16.632812 15.71875 C 16.78125 15.820312 16.886719 15.953125 16.953125 16.121094 C 17.023438 16.289062 17.035156 16.460938 17 16.636719 C 16.960938 16.8125 16.878906 16.964844 16.746094 17.089844 L 13.855469 20.003906 L 16.746094 22.921875 C 16.878906 23.046875 16.960938 23.199219 17 23.375 C 17.035156 23.550781 17.023438 23.722656 16.953125 23.890625 C 16.886719 24.058594 16.78125 24.191406 16.632812 24.292969 C 16.480469 24.394531 16.316406 24.445312 16.136719 24.445312 C 15.886719 24.445312 15.679688 24.355469 15.507812 24.175781 L 11.996094 20.628906 C 11.824219 20.457031 11.738281 20.25 11.742188 20.003906 C 11.738281 19.761719 11.824219 19.550781 11.996094 19.375 Z M 27.289062 15.835938 C 27.117188 15.652344 26.910156 15.5625 26.660156 15.5625 C 26.414062 15.566406 26.207031 15.652344 26.039062 15.828125 C 25.867188 16 25.78125 16.207031 25.785156 16.453125 C 25.785156 16.699219 25.875 16.914062 26.046875 17.089844 L 28.941406 20.003906 L 26.046875 22.921875 C 25.875 23.097656 25.785156 23.3125 25.785156 23.558594 C 25.78125 23.800781 25.867188 24.011719 26.039062 24.183594 C 26.207031 24.359375 26.414062 24.445312 26.660156 24.445312 C 26.910156 24.449219 27.117188 24.355469 27.289062 24.175781 L 30.804688 20.628906 C 30.976562 20.457031 31.0625 20.25 31.0625 20.003906 C 31.0625 19.761719 30.980469 19.550781 30.804688 19.375 Z M 27.289062 15.835938 " fill-opacity="1" fill-rule="nonzero"/></g><g clip-path="url(#a08241f21b)"><path fill="#678983" d="M 20.484375 26.449219 L 24.003906 14.046875 C 24.03125 13.957031 24.042969 13.867188 24.042969 13.773438 C 24.046875 13.550781 23.972656 13.351562 23.824219 13.183594 C 23.679688 13.015625 23.492188 12.917969 23.269531 12.890625 C 23.046875 12.863281 22.84375 12.914062 22.660156 13.042969 C 22.476562 13.171875 22.359375 13.34375 22.308594 13.5625 L 18.800781 25.964844 C 18.777344 26.046875 18.765625 26.125 18.765625 26.210938 C 18.765625 26.40625 18.824219 26.582031 18.941406 26.742188 C 19.0625 26.898438 19.214844 27.003906 19.402344 27.054688 C 19.484375 27.078125 19.5625 27.089844 19.648438 27.089844 C 19.84375 27.089844 20.019531 27.03125 20.175781 26.910156 C 20.332031 26.792969 20.433594 26.636719 20.484375 26.449219 Z M 20.484375 26.449219 " fill-opacity="1" fill-rule="evenodd"/></g><g clip-path="url(#3938572246)"><path fill="#0a626a" d="M 34.527344 30.511719 C 34.070312 30.511719 33.632812 30.597656 33.210938 30.773438 C 32.792969 30.945312 32.421875 31.195312 32.097656 31.515625 C 31.777344 31.835938 31.527344 32.207031 31.355469 32.628906 C 31.179688 33.050781 31.09375 33.488281 31.09375 33.941406 C 31.09375 34.398438 31.179688 34.835938 31.355469 35.257812 C 31.527344 35.675781 31.777344 36.046875 32.097656 36.371094 C 32.421875 36.691406 32.792969 36.941406 33.210938 37.113281 C 33.632812 37.289062 34.070312 37.375 34.527344 37.375 C 34.980469 37.375 35.417969 37.289062 35.839844 37.113281 C 36.257812 36.941406 36.628906 36.691406 36.953125 36.371094 C 37.273438 36.046875 37.523438 35.675781 37.695312 35.257812 C 37.871094 34.835938 37.957031 34.398438 37.957031 33.941406 C 37.957031 33.488281 37.871094 33.050781 37.695312 32.628906 C 37.519531 32.210938 37.273438 31.839844 36.953125 31.515625 C 36.628906 31.195312 36.257812 30.945312 35.839844 30.773438 C 35.417969 30.597656 34.980469 30.511719 34.527344 30.511719 Z M 34.527344 36.824219 C 34.144531 36.824219 33.777344 36.753906 33.421875 36.605469 C 33.070312 36.460938 32.757812 36.25 32.488281 35.980469 C 32.214844 35.710938 32.007812 35.398438 31.863281 35.046875 C 31.714844 34.691406 31.644531 34.324219 31.644531 33.941406 C 31.644531 33.558594 31.714844 33.191406 31.863281 32.839844 C 32.007812 32.484375 32.214844 32.175781 32.488281 31.902344 C 32.757812 31.632812 33.070312 31.425781 33.421875 31.277344 C 33.777344 31.132812 34.144531 31.058594 34.527344 31.058594 C 34.90625 31.058594 35.277344 31.132812 35.628906 31.277344 C 35.980469 31.425781 36.292969 31.632812 36.5625 31.902344 C 36.835938 32.175781 37.042969 32.484375 37.1875 32.839844 C 37.335938 33.191406 37.410156 33.558594 37.410156 33.941406 C 37.410156 34.324219 37.335938 34.691406 37.1875 35.046875 C 37.042969 35.398438 36.832031 35.710938 36.5625 35.980469 C 36.292969 36.25 35.980469 36.460938 35.628906 36.605469 C 35.277344 36.75 34.90625 36.824219 34.527344 36.824219 Z M 34.527344 32.707031 C 34.675781 32.707031 34.808594 32.652344 34.914062 32.546875 C 35.019531 32.4375 35.074219 32.308594 35.074219 32.15625 C 35.074219 32.007812 35.019531 31.875 34.914062 31.769531 C 34.808594 31.664062 34.675781 31.609375 34.527344 31.609375 C 34.375 31.609375 34.246094 31.664062 34.136719 31.769531 C 34.03125 31.875 33.976562 32.007812 33.976562 32.15625 C 33.976562 32.308594 34.03125 32.4375 34.136719 32.546875 C 34.246094 32.652344 34.375 32.707031 34.527344 32.707031 Z M 35.996094 32.710938 L 34.558594 32.917969 C 34.535156 32.921875 34.515625 32.921875 34.492188 32.917969 L 33.054688 32.710938 C 32.980469 32.699219 32.914062 32.714844 32.851562 32.761719 C 32.792969 32.808594 32.753906 32.867188 32.746094 32.941406 C 32.734375 33.015625 32.75 33.085938 32.796875 33.144531 C 32.839844 33.207031 32.902344 33.242188 32.976562 33.253906 L 33.859375 33.382812 C 33.898438 33.386719 33.917969 33.410156 33.917969 33.449219 L 33.917969 34.507812 L 33.894531 34.617188 L 33.328125 35.863281 C 33.289062 35.929688 33.28125 36 33.300781 36.070312 C 33.320312 36.144531 33.359375 36.199219 33.425781 36.238281 C 33.492188 36.277344 33.5625 36.285156 33.632812 36.269531 C 33.707031 36.25 33.761719 36.207031 33.800781 36.140625 L 34.460938 34.773438 C 34.472656 34.742188 34.496094 34.730469 34.527344 34.730469 C 34.558594 34.730469 34.582031 34.742188 34.597656 34.773438 L 35.25 36.140625 C 35.289062 36.207031 35.34375 36.246094 35.417969 36.265625 C 35.488281 36.285156 35.558594 36.277344 35.625 36.238281 C 35.691406 36.199219 35.734375 36.144531 35.75 36.070312 C 35.769531 36 35.761719 35.929688 35.722656 35.863281 L 35.148438 34.597656 L 35.132812 34.53125 L 35.132812 33.449219 C 35.132812 33.410156 35.152344 33.386719 35.191406 33.382812 L 36.074219 33.253906 C 36.148438 33.242188 36.210938 33.207031 36.253906 33.144531 C 36.300781 33.085938 36.316406 33.015625 36.308594 32.941406 C 36.296875 32.867188 36.261719 32.808594 36.199219 32.761719 C 36.140625 32.714844 36.070312 32.699219 35.996094 32.710938 Z M 35.996094 32.710938 " fill-opacity="1" fill-rule="nonzero"/></g><g clip-path="url(#de140afe0e)"><path fill="#0a626a" d="M 3.300781 5.191406 L 3.628906 4.433594 L 4.25 6.480469 C 4.265625 6.539062 4.320312 6.578125 4.382812 6.578125 C 4.386719 6.578125 4.390625 6.578125 4.390625 6.578125 C 4.457031 6.574219 4.511719 6.527344 4.523438 6.460938 L 5.203125 2.480469 L 5.773438 6.023438 C 5.785156 6.085938 5.835938 6.132812 5.902344 6.140625 C 5.96875 6.144531 6.027344 6.105469 6.046875 6.042969 L 6.601562 4.417969 L 6.875 5.238281 C 6.894531 5.296875 6.949219 5.335938 7.007812 5.335938 L 11.019531 5.335938 L 11.019531 5.179688 L 7.019531 5.179688 L 6.734375 4.328125 C 6.714844 4.269531 6.664062 4.230469 6.601562 4.230469 C 6.539062 4.230469 6.488281 4.269531 6.46875 4.324219 L 5.917969 5.9375 L 5.339844 2.367188 C 5.332031 2.300781 5.273438 2.25 5.203125 2.25 C 5.132812 2.25 5.074219 2.296875 5.0625 2.367188 L 4.378906 6.375 L 3.765625 4.351562 C 3.75 4.292969 3.699219 4.253906 3.640625 4.25 C 3.582031 4.246094 3.527344 4.28125 3.503906 4.335938 L 3.160156 5.121094 L 2.09375 5.121094 L 2.09375 5.277344 L 3.171875 5.277344 C 3.226562 5.277344 3.277344 5.242188 3.300781 5.191406 Z M 3.300781 5.191406 " fill-opacity="1" fill-rule="nonzero"/></g></svg>