<svg xmlns="http://www.w3.org/2000/svg" xmlns:xlink="http://www.w3.org/1999/xlink" width="240" zoomAndPan="magnify" viewBox="0 0 180 48" height="64" preserveAspectRatio="xMidYMid meet" version="1.0"><defs><g/></defs><g fill="#000000" fill-opacity="1"><g transform="translate(3.967347, 39.997389)"><g><path d="M 11.9375 -36.421875 L 11.9375 -6.03125 L 28.296875 -6.03125 L 28.296875 0 L 4.734375 0 L 4.734375 -36.421875 Z M 11.9375 -36.421875 "/></g></g></g><g fill="#000000" fill-opacity="1"><g transform="translate(33.453933, 39.997389)"><g><path d="M 27.15625 -12.1875 L 9.484375 -12.1875 C 9.691406 -9.789062 10.375 -8.046875 11.53125 -6.953125 C 12.695312 -5.867188 14.285156 -5.328125 16.296875 -5.328125 C 17.867188 -5.328125 19.144531 -5.617188 20.125 -6.203125 C 21.101562 -6.796875 21.894531 -7.691406 22.5 -8.890625 L 23.015625 -8.890625 L 27.59375 -5.953125 C 26.695312 -4.023438 25.34375 -2.460938 23.53125 -1.265625 C 21.726562 -0.078125 19.316406 0.515625 16.296875 0.515625 C 13.453125 0.515625 10.992188 -0.0195312 8.921875 -1.09375 C 6.859375 -2.175781 5.265625 -3.78125 4.140625 -5.90625 C 3.023438 -8.039062 2.46875 -10.644531 2.46875 -13.71875 C 2.46875 -16.84375 3.054688 -19.472656 4.234375 -21.609375 C 5.410156 -23.753906 7.003906 -25.351562 9.015625 -26.40625 C 11.023438 -27.46875 13.285156 -28 15.796875 -28 C 19.679688 -28 22.65625 -26.96875 24.71875 -24.90625 C 26.789062 -22.851562 27.828125 -19.832031 27.828125 -15.84375 C 27.828125 -14.394531 27.773438 -13.273438 27.671875 -12.484375 Z M 21.21875 -16.640625 C 21.15625 -18.734375 20.671875 -20.253906 19.765625 -21.203125 C 18.859375 -22.160156 17.535156 -22.640625 15.796875 -22.640625 C 12.304688 -22.640625 10.253906 -20.640625 9.640625 -16.640625 Z M 21.21875 -16.640625 "/></g></g></g><g fill="#000000" fill-opacity="1"><g transform="translate(63.314088, 39.997389)"><g><path d="M 3.953125 0 L 3.953125 -27.46875 L 10.59375 -27.46875 L 10.59375 -23.4375 L 11.109375 -23.3125 C 12.816406 -26.4375 15.59375 -28 19.4375 -28 C 22.601562 -28 24.925781 -27.132812 26.40625 -25.40625 C 27.894531 -23.675781 28.640625 -21.160156 28.640625 -17.859375 L 28.640625 0 L 21.75 0 L 21.75 -17.015625 C 21.75 -18.835938 21.378906 -20.148438 20.640625 -20.953125 C 19.910156 -21.765625 18.742188 -22.171875 17.140625 -22.171875 C 15.160156 -22.171875 13.617188 -21.53125 12.515625 -20.25 C 11.410156 -18.96875 10.859375 -16.957031 10.859375 -14.21875 L 10.859375 0 Z M 3.953125 0 "/></g></g></g><g fill="#0a626a" fill-opacity="1"><g transform="translate(95.49413, 39.997389)"><g><path d="M 12.859375 0.515625 C 10.972656 0.515625 9.25 0.296875 7.6875 -0.140625 C 6.132812 -0.578125 4.804688 -1.179688 3.703125 -1.953125 C 2.597656 -2.722656 1.78125 -3.609375 1.25 -4.609375 L 5.078125 -8.75 L 5.609375 -8.75 C 6.515625 -7.519531 7.59375 -6.597656 8.84375 -5.984375 C 10.09375 -5.367188 11.445312 -5.0625 12.90625 -5.0625 C 14.25 -5.0625 15.257812 -5.300781 15.9375 -5.78125 C 16.625 -6.257812 16.96875 -6.945312 16.96875 -7.84375 C 16.96875 -8.539062 16.722656 -9.125 16.234375 -9.59375 C 15.742188 -10.070312 14.945312 -10.445312 13.84375 -10.71875 L 10.21875 -11.578125 C 7.488281 -12.222656 5.492188 -13.210938 4.234375 -14.546875 C 2.984375 -15.890625 2.359375 -17.59375 2.359375 -19.65625 C 2.359375 -21.363281 2.796875 -22.847656 3.671875 -24.109375 C 4.546875 -25.367188 5.773438 -26.332031 7.359375 -27 C 8.941406 -27.664062 10.789062 -28 12.90625 -28 C 15.375 -28 17.421875 -27.640625 19.046875 -26.921875 C 20.679688 -26.210938 21.957031 -25.257812 22.875 -24.0625 L 19.1875 -20.078125 L 18.6875 -20.078125 C 17.914062 -20.941406 17.050781 -21.570312 16.09375 -21.96875 C 15.144531 -22.363281 14.082031 -22.5625 12.90625 -22.5625 C 10.175781 -22.5625 8.8125 -21.71875 8.8125 -20.03125 C 8.8125 -19.3125 9.066406 -18.726562 9.578125 -18.28125 C 10.085938 -17.832031 10.976562 -17.46875 12.25 -17.1875 L 15.640625 -16.4375 C 18.429688 -15.84375 20.46875 -14.882812 21.75 -13.5625 C 23.039062 -12.238281 23.6875 -10.46875 23.6875 -8.25 C 23.6875 -6.5 23.253906 -4.957031 22.390625 -3.625 C 21.523438 -2.300781 20.28125 -1.28125 18.65625 -0.5625 C 17.03125 0.152344 15.097656 0.515625 12.859375 0.515625 Z M 12.859375 0.515625 "/></g></g></g><g fill="#0a626a" fill-opacity="1"><g transform="translate(120.821718, 39.997389)"><g><path d="M 27.15625 -12.1875 L 9.484375 -12.1875 C 9.691406 -9.789062 10.375 -8.046875 11.53125 -6.953125 C 12.695312 -5.867188 14.285156 -5.328125 16.296875 -5.328125 C 17.867188 -5.328125 19.144531 -5.617188 20.125 -6.203125 C 21.101562 -6.796875 21.894531 -7.691406 22.5 -8.890625 L 23.015625 -8.890625 L 27.59375 -5.953125 C 26.695312 -4.023438 25.34375 -2.460938 23.53125 -1.265625 C 21.726562 -0.078125 19.316406 0.515625 16.296875 0.515625 C 13.453125 0.515625 10.992188 -0.0195312 8.921875 -1.09375 C 6.859375 -2.175781 5.265625 -3.78125 4.140625 -5.90625 C 3.023438 -8.039062 2.46875 -10.644531 2.46875 -13.71875 C 2.46875 -16.84375 3.054688 -19.472656 4.234375 -21.609375 C 5.410156 -23.753906 7.003906 -25.351562 9.015625 -26.40625 C 11.023438 -27.46875 13.285156 -28 15.796875 -28 C 19.679688 -28 22.65625 -26.96875 24.71875 -24.90625 C 26.789062 -22.851562 27.828125 -19.832031 27.828125 -15.84375 C 27.828125 -14.394531 27.773438 -13.273438 27.671875 -12.484375 Z M 21.21875 -16.640625 C 21.15625 -18.734375 20.671875 -20.253906 19.765625 -21.203125 C 18.859375 -22.160156 17.535156 -22.640625 15.796875 -22.640625 C 12.304688 -22.640625 10.253906 -20.640625 9.640625 -16.640625 Z M 21.21875 -16.640625 "/></g></g></g><g fill="#0a626a" fill-opacity="1"><g transform="translate(150.681873, 39.997389)"><g><path d="M 12.859375 0.515625 C 10.972656 0.515625 9.25 0.296875 7.6875 -0.140625 C 6.132812 -0.578125 4.804688 -1.179688 3.703125 -1.953125 C 2.597656 -2.722656 1.78125 -3.609375 1.25 -4.609375 L 5.078125 -8.75 L 5.609375 -8.75 C 6.515625 -7.519531 7.59375 -6.597656 8.84375 -5.984375 C 10.09375 -5.367188 11.445312 -5.0625 12.90625 -5.0625 C 14.25 -5.0625 15.257812 -5.300781 15.9375 -5.78125 C 16.625 -6.257812 16.96875 -6.945312 16.96875 -7.84375 C 16.96875 -8.539062 16.722656 -9.125 16.234375 -9.59375 C 15.742188 -10.070312 14.945312 -10.445312 13.84375 -10.71875 L 10.21875 -11.578125 C 7.488281 -12.222656 5.492188 -13.210938 4.234375 -14.546875 C 2.984375 -15.890625 2.359375 -17.59375 2.359375 -19.65625 C 2.359375 -21.363281 2.796875 -22.847656 3.671875 -24.109375 C 4.546875 -25.367188 5.773438 -26.332031 7.359375 -27 C 8.941406 -27.664062 10.789062 -28 12.90625 -28 C 15.375 -28 17.421875 -27.640625 19.046875 -26.921875 C 20.679688 -26.210938 21.957031 -25.257812 22.875 -24.0625 L 19.1875 -20.078125 L 18.6875 -20.078125 C 17.914062 -20.941406 17.050781 -21.570312 16.09375 -21.96875 C 15.144531 -22.363281 14.082031 -22.5625 12.90625 -22.5625 C 10.175781 -22.5625 8.8125 -21.71875 8.8125 -20.03125 C 8.8125 -19.3125 9.066406 -18.726562 9.578125 -18.28125 C 10.085938 -17.832031 10.976562 -17.46875 12.25 -17.1875 L 15.640625 -16.4375 C 18.429688 -15.84375 20.46875 -14.882812 21.75 -13.5625 C 23.039062 -12.238281 23.6875 -10.46875 23.6875 -8.25 C 23.6875 -6.5 23.253906 -4.957031 22.390625 -3.625 C 21.523438 -2.300781 20.28125 -1.28125 18.65625 -0.5625 C 17.03125 0.152344 15.097656 0.515625 12.859375 0.515625 Z M 12.859375 0.515625 "/></g></g></g></svg>